<?xml version="1.0" encoding="UTF-8" standalone="no"?>
<!-- Generator: Adobe Illustrator 21.1.0, SVG Export Plug-In . SVG Version: 6.00 Build 0)  -->

<svg
   version="1.1"
   id="Calque_1"
   x="0px"
   y="0px"
   viewBox="0 0 155.1 79.4"
   style="enable-background:new 0 0 155.1 79.4;"
   width="450"
   height="230.367505"
   xml:space="preserve"
   sodipodi:docname="xeus-logo.svg"
   inkscape:version="1.2.2 (b0a8486541, 2022-12-01)"
   xmlns:inkscape="http://www.inkscape.org/namespaces/inkscape"
   xmlns:sodipodi="http://sodipodi.sourceforge.net/DTD/sodipodi-0.dtd"
   xmlns:xlink="http://www.w3.org/1999/xlink"
   xmlns="http://www.w3.org/2000/svg"
   xmlns:svg="http://www.w3.org/2000/svg"><sodipodi:namedview
   id="namedview12"
   pagecolor="#ffffff"
   bordercolor="#666666"
   borderopacity="1.0"
   inkscape:pageshadow="2"
   inkscape:pageopacity="0.0"
   inkscape:pagecheckerboard="0"
   showgrid="false"
   inkscape:zoom="1.9719741"
   inkscape:cx="131.34047"
   inkscape:cy="291.33243"
   inkscape:window-width="2880"
   inkscape:window-height="1655"
   inkscape:window-x="0"
   inkscape:window-y="56"
   inkscape:window-maximized="1"
   inkscape:current-layer="Calque_1"
   inkscape:showpageshadow="0"
   inkscape:deskcolor="#d1d1d1" /><defs
   id="defs21">


<linearGradient
   id="XMLID_17_-9"
   gradientUnits="userSpaceOnUse"
   x1="174.0737"
   y1="215.5488"
   x2="132.27631"
   y2="141.7533"><stop
     offset="0"
     style="stop-color:#FB7655"
     id="stop3272-4" /><stop
     offset="0"
     style="stop-color:#FB7655"
     id="stop3274-5" /><stop
     offset="0.41"
     style="stop-color:#E42B1E"
     id="stop3276-1" /><stop
     offset="0.99"
     style="stop-color:#990000"
     id="stop3278-0" /><stop
     offset="1"
     style="stop-color:#990000"
     id="stop3280-3" /></linearGradient><linearGradient
   id="XMLID_18_-7"
   gradientUnits="userSpaceOnUse"
   x1="194.895"
   y1="153.5576"
   x2="141.0276"
   y2="117.4093"><stop
     offset="0"
     style="stop-color:#871101"
     id="stop3285-8" /><stop
     offset="0"
     style="stop-color:#871101"
     id="stop3287-8" /><stop
     offset="0.99"
     style="stop-color:#911209"
     id="stop3289-6" /><stop
     offset="1"
     style="stop-color:#911209"
     id="stop3291-0" /></linearGradient><linearGradient
   id="XMLID_19_-4"
   gradientUnits="userSpaceOnUse"
   x1="151.79539"
   y1="217.7852"
   x2="97.929703"
   y2="181.638"><stop
     offset="0"
     style="stop-color:#871101"
     id="stop3296-6" /><stop
     offset="0"
     style="stop-color:#871101"
     id="stop3298-7" /><stop
     offset="0.99"
     style="stop-color:#911209"
     id="stop3300-6" /><stop
     offset="1"
     style="stop-color:#911209"
     id="stop3302-0" /></linearGradient><linearGradient
   id="XMLID_20_-9"
   gradientUnits="userSpaceOnUse"
   x1="38.696301"
   y1="127.3906"
   x2="47.046902"
   y2="181.66141"><stop
     offset="0"
     style="stop-color:#FFFFFF"
     id="stop3307-7" /><stop
     offset="0"
     style="stop-color:#FFFFFF"
     id="stop3309-5" /><stop
     offset="0.23"
     style="stop-color:#E57252"
     id="stop3311-9" /><stop
     offset="0.46"
     style="stop-color:#DE3B20"
     id="stop3313-7" /><stop
     offset="0.99"
     style="stop-color:#A60003"
     id="stop3315-8" /><stop
     offset="1"
     style="stop-color:#A60003"
     id="stop3317-5" /></linearGradient><linearGradient
   id="XMLID_21_-3"
   gradientUnits="userSpaceOnUse"
   x1="96.132797"
   y1="76.715302"
   x2="99.209602"
   y2="132.1021"><stop
     offset="0"
     style="stop-color:#FFFFFF"
     id="stop3322-3" /><stop
     offset="0"
     style="stop-color:#FFFFFF"
     id="stop3324-8" /><stop
     offset="0.23"
     style="stop-color:#E4714E"
     id="stop3326-3" /><stop
     offset="0.56"
     style="stop-color:#BE1A0D"
     id="stop3328-7" /><stop
     offset="0.99"
     style="stop-color:#A80D00"
     id="stop3330-9" /><stop
     offset="1"
     style="stop-color:#A80D00"
     id="stop3332-3" /></linearGradient><linearGradient
   id="XMLID_22_-7"
   gradientUnits="userSpaceOnUse"
   x1="147.103"
   y1="25.521"
   x2="156.3141"
   y2="65.216202"><stop
     offset="0"
     style="stop-color:#FFFFFF"
     id="stop3337-8" /><stop
     offset="0"
     style="stop-color:#FFFFFF"
     id="stop3339-7" /><stop
     offset="0.18"
     style="stop-color:#E46342"
     id="stop3341-4" /><stop
     offset="0.4"
     style="stop-color:#C82410"
     id="stop3343-1" /><stop
     offset="0.99"
     style="stop-color:#A80D00"
     id="stop3345-9" /><stop
     offset="1"
     style="stop-color:#A80D00"
     id="stop3347-0" /></linearGradient><linearGradient
   id="XMLID_23_-9"
   gradientUnits="userSpaceOnUse"
   x1="118.9761"
   y1="11.5415"
   x2="158.66859"
   y2="-8.3048"><stop
     offset="0"
     style="stop-color:#FFFFFF"
     id="stop3352-8" /><stop
     offset="0"
     style="stop-color:#FFFFFF"
     id="stop3354-8" /><stop
     offset="0.54"
     style="stop-color:#C81F11"
     id="stop3356-5" /><stop
     offset="0.99"
     style="stop-color:#BF0905"
     id="stop3358-8" /><stop
     offset="1"
     style="stop-color:#BF0905"
     id="stop3360-4" /></linearGradient><linearGradient
   id="XMLID_24_-3"
   gradientUnits="userSpaceOnUse"
   x1="3.9033"
   y1="113.5547"
   x2="7.1701999"
   y2="146.2628"><stop
     offset="0"
     style="stop-color:#FFFFFF"
     id="stop3365-7" /><stop
     offset="0"
     style="stop-color:#FFFFFF"
     id="stop3367-1" /><stop
     offset="0.31"
     style="stop-color:#DE4024"
     id="stop3369-3" /><stop
     offset="0.99"
     style="stop-color:#BF190B"
     id="stop3371-8" /><stop
     offset="1"
     style="stop-color:#BF190B"
     id="stop3373-0" /></linearGradient><linearGradient
   id="XMLID_25_-9"
   gradientUnits="userSpaceOnUse"
   x1="-18.5557"
   y1="155.10451"
   x2="135.0152"
   y2="-2.8092999"><stop
     offset="0"
     style="stop-color:#BD0012"
     id="stop3380-7" /><stop
     offset="0"
     style="stop-color:#BD0012"
     id="stop3382-9" /><stop
     offset="0.07"
     style="stop-color:#FFFFFF"
     id="stop3384-9" /><stop
     offset="0.17"
     style="stop-color:#FFFFFF"
     id="stop3386-3" /><stop
     offset="0.27"
     style="stop-color:#C82F1C"
     id="stop3388-2" /><stop
     offset="0.33"
     style="stop-color:#820C01"
     id="stop3390-4" /><stop
     offset="0.46"
     style="stop-color:#A31601"
     id="stop3392-3" /><stop
     offset="0.72"
     style="stop-color:#B31301"
     id="stop3394-7" /><stop
     offset="0.99"
     style="stop-color:#E82609"
     id="stop3396-1" /><stop
     offset="1"
     style="stop-color:#E82609"
     id="stop3398-2" /></linearGradient><linearGradient
   id="XMLID_26_-2"
   gradientUnits="userSpaceOnUse"
   x1="99.074699"
   y1="171.0332"
   x2="52.817699"
   y2="159.61659"><stop
     offset="0"
     style="stop-color:#8C0C01"
     id="stop3403-0" /><stop
     offset="0"
     style="stop-color:#8C0C01"
     id="stop3405-2" /><stop
     offset="0.54"
     style="stop-color:#990C00"
     id="stop3407-1" /><stop
     offset="0.99"
     style="stop-color:#A80D0E"
     id="stop3409-7" /><stop
     offset="1"
     style="stop-color:#A80D0E"
     id="stop3411-5" /></linearGradient><linearGradient
   id="XMLID_27_-1"
   gradientUnits="userSpaceOnUse"
   x1="178.52589"
   y1="115.5146"
   x2="137.43269"
   y2="78.683998"><stop
     offset="0"
     style="stop-color:#7E110B"
     id="stop3416-7" /><stop
     offset="0"
     style="stop-color:#7E110B"
     id="stop3418-4" /><stop
     offset="0.99"
     style="stop-color:#9E0C00"
     id="stop3420-1" /><stop
     offset="1"
     style="stop-color:#9E0C00"
     id="stop3422-7" /></linearGradient><linearGradient
   id="XMLID_28_-1"
   gradientUnits="userSpaceOnUse"
   x1="193.6235"
   y1="47.937"
   x2="173.15421"
   y2="26.053801"><stop
     offset="0"
     style="stop-color:#79130D"
     id="stop3427-1" /><stop
     offset="0"
     style="stop-color:#79130D"
     id="stop3429-1" /><stop
     offset="0.99"
     style="stop-color:#9E120B"
     id="stop3431-7" /><stop
     offset="1"
     style="stop-color:#9E120B"
     id="stop3433-0" /></linearGradient><radialGradient
   id="XMLID_29_-4"
   cx="143.8315"
   cy="79.388199"
   r="50.357601"
   gradientUnits="userSpaceOnUse"><stop
     offset="0"
     style="stop-color:#A80D00"
     id="stop3440-0" /><stop
     offset="0"
     style="stop-color:#A80D00"
     id="stop3442-8" /><stop
     offset="0.99"
     style="stop-color:#7E0E08"
     id="stop3444-5" /><stop
     offset="1"
     style="stop-color:#7E0E08"
     id="stop3446-1" /></radialGradient><radialGradient
   id="XMLID_30_-6"
   cx="74.0923"
   cy="145.75101"
   r="66.943703"
   gradientUnits="userSpaceOnUse"><stop
     offset="0"
     style="stop-color:#A30C00"
     id="stop3451-6" /><stop
     offset="0"
     style="stop-color:#A30C00"
     id="stop3453-2" /><stop
     offset="0.99"
     style="stop-color:#800E08"
     id="stop3455-1" /><stop
     offset="1"
     style="stop-color:#800E08"
     id="stop3457-9" /></radialGradient><linearGradient
   id="XMLID_31_-6"
   gradientUnits="userSpaceOnUse"
   x1="26.669901"
   y1="197.33591"
   x2="9.9886999"
   y2="140.742"><stop
     offset="0"
     style="stop-color:#8B2114"
     id="stop3462-4" /><stop
     offset="0"
     style="stop-color:#8B2114"
     id="stop3464-8" /><stop
     offset="0.43"
     style="stop-color:#9E100A"
     id="stop3466-0" /><stop
     offset="0.99"
     style="stop-color:#B3100C"
     id="stop3468-8" /><stop
     offset="1"
     style="stop-color:#B3100C"
     id="stop3470-1" /></linearGradient><linearGradient
   id="XMLID_32_-0"
   gradientUnits="userSpaceOnUse"
   x1="154.6411"
   y1="9.7979002"
   x2="192.039"
   y2="26.305901"><stop
     offset="0"
     style="stop-color:#B31000"
     id="stop3475-2" /><stop
     offset="0"
     style="stop-color:#B31000"
     id="stop3477-2" /><stop
     offset="0.44"
     style="stop-color:#910F08"
     id="stop3479-9" /><stop
     offset="0.99"
     style="stop-color:#791C12"
     id="stop3481-7" /><stop
     offset="1"
     style="stop-color:#791C12"
     id="stop3483-5" /></linearGradient><linearGradient
   y2="141.7533"
   x2="132.27631"
   y1="215.5488"
   x1="174.0737"
   gradientUnits="userSpaceOnUse"
   id="linearGradient3448"
   xlink:href="#XMLID_17_-9"
   inkscape:collect="always" /></defs>
<style
   type="text/css"
   id="style2">
	.st0{fill:#666666;}
	.st1{fill:#40B3C3;}
	.st2{opacity:0.28;fill:#40B3C3;}
</style>
<path
   id="path4143_4_"
   class="st1"
   d="m 5.5,0 c 0.1,0 0.3,0.1 0.4,0.1 2.7,0.9 5,2.2 5,2.3 2.1,1.5 4,3.4 5.3,5.6 0.5,0.7 5.7,8.6 9.5,14.2 -0.9,1.3 -1.7,2.5 -2.3,3.5 0,-0.1 -0.1,-0.1 -0.1,-0.2 C 19.4,19.7 12.6,9.5 12.1,8.7 11.2,7.3 9.9,6 8.3,5 8.3,5 6.6,3.9 4.4,3.2 3.5,2.9 2,2.6 0,2.4 V 49.2 C 2,49 3.5,48.7 4.4,48.4 6.6,47.7 8.3,46.6 8.3,46.6 10,45.5 11.2,44.2 12.2,42.8 12.7,42.1 19.5,31.8 23.4,26 26.6,21.1 34.7,8.9 35.3,8.1 36.7,5.9 38.5,4 40.6,2.5 c 0,-0.1 2.3,-1.4 5,-2.3 L 46.1,0 Z m 46,2.4 C 49.5,2.6 48,2.9 47.1,3.2 44.9,3.9 43.2,5 43.2,5 41.6,6 40.3,7.3 39.3,8.8 38.8,9.5 32,19.8 28.1,25.6 25,30.4 16.9,42.6 16.3,43.4 14.9,45.6 13.1,47.5 11,49 11,49.1 8.7,50.4 6,51.3 L 5.4,51.4 H 46 l -0.4,-0.1 c -2.7,-0.9 -5,-2.2 -5,-2.3 -2.1,-1.5 -4,-3.4 -5.3,-5.6 -0.5,-0.7 -5.7,-8.6 -9.5,-14.2 0.9,-1.3 1.7,-2.5 2.3,-3.5 0,0.1 0.1,0.1 0.1,0.2 3.9,5.8 10.7,16 11.2,16.8 1,1.4 2.2,2.7 3.9,3.8 0,0 1.7,1.1 3.9,1.8 0.9,0.3 2.4,0.5 4.4,0.8 v 2.3 h 0.1 v -49 z" /><path
   id="path7-3_3_"
   class="st2"
   d="m 28,25.7 c -0.6,0.9 -1.4,2.1 -2.3,3.5 3.8,5.7 9,13.6 9.5,14.2 1.4,2.2 3.2,4.1 5.3,5.6 0,0.1 2.3,1.4 5,2.3 0.2,0 0.4,0.1 0.6,0.1 h 5.3 V 49 C 49.4,48.8 47.9,48.5 47,48.2 44.8,47.5 43.1,46.4 43.1,46.4 41.5,45.4 40.2,44.1 39.2,42.6 38.8,42 32,31.8 28.1,26 v 0 c 0,-0.1 0,-0.2 -0.1,-0.3 M 5.3,0 H 0 V 2.4 C 2,2.6 3.5,2.9 4.4,3.2 6.6,3.9 8.3,5 8.3,5 c 1.6,1 2.9,2.3 3.9,3.8 0.5,0.7 7.3,11 11.2,16.8 v 0 c 0,0.1 0.1,0.1 0.1,0.2 0.6,-0.9 1.4,-2.1 2.3,-3.5 C 22,16.6 16.8,8.7 16.3,8 14.9,5.8 13.1,3.9 11,2.4 11,2.3 8.7,1 6,0.1 5.8,0.1 5.6,0 5.3,0" /><path
   class="st1"
   d="m 144.2,10.3 c -5.3,0 -10.1,2.4 -10.1,8.5 0,6.1 4.3,8 9.6,9.4 4.9,1.4 9,2.4 9,6.9 0,5.4 -3.9,7.1 -8.2,7.1 -3.9,0 -7.6,-1 -10.4,-2.8 l -1.1,2.1 c 3.3,2.2 7.3,3 11.6,3 5.7,0 10.6,-2.5 10.6,-9.4 0,-6.2 -4.8,-7.6 -10.4,-9.2 -5.1,-1.4 -8.1,-2.7 -8.1,-7 0,-4.9 3.4,-6.3 7.7,-6.3 2.8,0 5.6,0.4 7.9,1.7 l 1,-2.2 c -3,-1.4 -6.1,-1.8 -9.1,-1.8 z"
   id="path8" /><path
   class="st1"
   d="m 119.7,10.2 v 18.2 c 0,8.1 -1.2,13.8 -8.8,13.8 h -0.7 c -7.7,0 -8.8,-5.7 -8.8,-13.8 V 10.3 c -0.9,0.5 -1.9,1 -2.6,1.7 v 17.2 c 0,7.2 1.3,15.3 11,15.3 h 1.5 c 9.6,0 11,-8.1 11.1,-15.4 V 11.9 c -0.9,-0.7 -1.8,-1.2 -2.7,-1.7 z"
   id="path10" /><path
   class="st1"
   d="m 76.5,10.3 c -6,0 -13.1,2.2 -13.1,17.2 0,13.9 6.1,17.1 13.6,17.1 4,0 7.6,-0.7 10.6,-2.6 l -1,-2.2 c -3.1,1.8 -6,2.4 -9.6,2.4 -5.9,0 -10.6,-2.1 -11,-12.7 v -1.3 h 22.9 v 0 -0.9 C 89,14.5 84.3,10.3 76.5,10.3 Z M 65.9,25.9 c 0.2,-11.2 5.2,-13.3 10.5,-13.3 5.9,0 9.9,3.1 9.9,13.3 z"
   id="path12" />
<text
   xml:space="preserve"
   style="font-size:22.0587px;line-height:1.25;font-family:sans-serif;-inkscape-font-specification:sans-serif;fill:#aa0f00;fill-opacity:1;stroke-width:0.393515"
   x="90.418037"
   y="67.954559"
   id="text2085"><tspan
     sodipodi:role="line"
     id="tspan2083"
     style="font-style:normal;font-variant:normal;font-weight:bold;font-stretch:normal;font-size:22.0587px;font-family:sans-serif;-inkscape-font-specification:'sans-serif Bold';fill:#aa0f00;fill-opacity:1;stroke-width:0.393515"
     x="90.418037"
     y="67.954559">ruby</tspan></text><g
   style="overflow:visible;stroke-width:2.81669"
   id="g6926"
   transform="matrix(0.12236597,0,0,0.12236597,62.149186,50.130764)"><polygon
     style="fill:url(#linearGradient3448);fill-rule:evenodd;stroke-width:7.93373"
     clip-rule="evenodd"
     points="186.849,187.641 198.13,39.95 153.5,130.41 40.38,197.58 "
     id="polygon3282" /><polygon
     style="fill:url(#XMLID_18_-7);fill-rule:evenodd;stroke-width:7.93373"
     clip-rule="evenodd"
     points="174.5,100.65 140.209,145.93 187.089,187.54 "
     id="polygon3293" /><polygon
     style="fill:url(#XMLID_19_-4);fill-rule:evenodd;stroke-width:7.93373"
     clip-rule="evenodd"
     points="95.03,180.3 40.87,197.391 187.259,187.54 "
     id="polygon3304" /><polygon
     style="fill:url(#XMLID_20_-9);fill-rule:evenodd;stroke-width:7.93373"
     clip-rule="evenodd"
     points="64.04,121.93 13.34,132.771 41,197.41 "
     id="polygon3319" /><polygon
     style="fill:url(#XMLID_21_-3);fill-rule:evenodd;stroke-width:7.93373"
     clip-rule="evenodd"
     points="119,63.14 58.33,120.01 140.2,146.18 "
     id="polygon3334" /><polygon
     style="fill:url(#XMLID_22_-7);fill-rule:evenodd;stroke-width:7.93373"
     clip-rule="evenodd"
     points="135.97,17.47 120,69.1 193.32,64.31 "
     id="polygon3349" /><polygon
     style="fill:url(#XMLID_23_-9);fill-rule:evenodd;stroke-width:7.93373"
     clip-rule="evenodd"
     points="132.77,19.41 111.49,0.52 166.5,0.77 "
     id="polygon3362" /><polygon
     style="fill:url(#XMLID_24_-3);fill-rule:evenodd;stroke-width:7.93373"
     clip-rule="evenodd"
     points="14.13,132.32 2.7,101.62 0,158.09 "
     id="polygon3375" /><path
     style="fill:#ffffff;fill-rule:evenodd;stroke-width:7.93373"
     inkscape:connector-curvature="0"
     clip-rule="evenodd"
     d="m 1.94,100.65 11.5,32.62 49.97,-11.211 57.05,-53.02 L 136.56,17.9 111.209,0 68.109,16.13 C 54.53,28.76 28.18,53.75 27.23,54.22 26.29,54.7 9.83,85.81 1.94,100.65 Z"
     id="path3377" /><path
     style="fill:url(#XMLID_25_-9);fill-rule:evenodd;stroke-width:7.93373"
     inkscape:connector-curvature="0"
     clip-rule="evenodd"
     d="m 42.32,42.05 c 29.43,-29.18 67.37,-46.42 81.93,-31.73 14.551,14.69 -0.88,50.39 -30.31,79.56 -29.43,29.17 -66.9,47.36 -81.45,32.67 -14.56,-14.68 0.4,-51.33 29.83,-80.5 z"
     id="path3400" /><path
     style="fill:url(#XMLID_26_-2);fill-rule:evenodd;stroke-width:7.93373"
     inkscape:connector-curvature="0"
     clip-rule="evenodd"
     d="m 41,197.38 22.86,-75.72 75.92,24.39 C 112.33,171.79 81.8,193.55 41,197.38 Z"
     id="path3413" /><path
     style="fill:url(#XMLID_27_-1);fill-rule:evenodd;stroke-width:7.93373"
     inkscape:connector-curvature="0"
     clip-rule="evenodd"
     d="m 120.56,68.89 19.49,77.2 C 162.98,121.98 183.56,96.06 193.639,64 Z"
     id="path3424" /><path
     style="fill:url(#XMLID_28_-1);fill-rule:evenodd;stroke-width:7.93373"
     inkscape:connector-curvature="0"
     clip-rule="evenodd"
     d="m 193.44,64.39 c 7.8,-23.54 9.6,-57.31 -27.181,-63.58 l -30.18,16.67 z"
     id="path3435" /><path
     style="fill:#9e1209;fill-rule:evenodd;stroke-width:7.93373"
     inkscape:connector-curvature="0"
     clip-rule="evenodd"
     d="m 0,157.75 c 1.08,38.851 29.11,39.43 41.05,39.771 L 13.47,133.11 Z"
     id="path3437" /><path
     style="fill:url(#XMLID_29_-4);fill-rule:evenodd;stroke-width:7.93373"
     inkscape:connector-curvature="0"
     clip-rule="evenodd"
     d="m 120.669,69.01 c 17.62,10.83 53.131,32.58 53.851,32.98 1.119,0.63 15.31,-23.93 18.53,-37.81 z"
     id="path3448" /><path
     style="fill:url(#XMLID_30_-6);fill-rule:evenodd;stroke-width:7.93373"
     inkscape:connector-curvature="0"
     clip-rule="evenodd"
     d="m 63.83,121.66 30.56,58.96 c 18.07,-9.8 32.22,-21.74 45.18,-34.53 z"
     id="path3459" /><path
     style="fill:url(#XMLID_31_-6);fill-rule:evenodd;stroke-width:7.93373"
     inkscape:connector-curvature="0"
     clip-rule="evenodd"
     d="m 13.35,133.19 -4.33,51.56 c 8.17,11.16 19.41,12.13 31.2,11.26 -8.53,-21.23 -25.57,-63.68 -26.87,-62.82 z"
     id="path3472" /><path
     style="fill:url(#XMLID_32_-0);fill-rule:evenodd;stroke-width:7.93373"
     inkscape:connector-curvature="0"
     clip-rule="evenodd"
     d="m 135.9,17.61 60.71,8.52 C 193.37,12.4 183.42,3.54 166.46,0.77 Z"
     id="path3485" /></g></svg>
